<svg width="659" height="82" viewBox="0 0 659 82" fill="none" xmlns="http://www.w3.org/2000/svg">
<path d="M0 8C0 3.58172 3.58172 0 8 0H651C655.418 0 659 3.58172 659 8V74C659 78.4183 655.418 82 651 82H8.00001C3.58173 82 0 78.4183 0 74V8Z" fill="white"/>
<path d="M53.9 56L44.45 45.15C43.7 45.8389 42.8375 46.3843 41.8625 46.7861C40.8875 47.188 39.85 47.3889 38.75 47.3889C36.025 47.3889 33.719 46.305 31.832 44.1373C29.945 41.9696 29.001 39.322 29 36.1944C28.999 33.0669 29.943 30.4193 31.832 28.2516C33.721 26.0839 36.027 25 38.75 25C41.473 25 43.7795 26.0839 45.6695 28.2516C47.5595 30.4193 48.503 33.0669 48.5 36.1944C48.5 37.4574 48.325 38.6486 47.975 39.7681C47.625 40.8875 47.15 41.8778 46.55 42.7389L56 53.5889L53.9 56ZM38.75 43.9444C40.625 43.9444 42.219 43.1913 43.532 41.6849C44.845 40.1785 45.501 38.3484 45.5 36.1944C45.499 34.0405 44.843 32.2109 43.532 30.7057C42.221 29.2005 40.627 28.4467 38.75 28.4444C36.873 28.4421 35.2795 29.1959 33.9695 30.7057C32.6595 32.2155 32.003 34.0451 32 36.1944C31.997 38.3438 32.6535 40.1739 33.9695 41.6849C35.2855 43.1959 36.879 43.949 38.75 43.9444Z" fill="black"/>
<path d="M86.512 51.196C85.2053 51.196 84.0293 50.972 82.984 50.524C81.9387 50.0573 81.1173 49.404 80.52 48.564C79.9227 47.724 79.624 46.744 79.624 45.624H83.04C83.1147 46.464 83.4413 47.1547 84.02 47.696C84.6173 48.2373 85.448 48.508 86.512 48.508C87.6133 48.508 88.472 48.2467 89.088 47.724C89.704 47.1827 90.012 46.492 90.012 45.652C90.012 44.9987 89.816 44.4667 89.424 44.056C89.0507 43.6453 88.5747 43.328 87.996 43.104C87.436 42.88 86.652 42.6373 85.644 42.376C84.3747 42.04 83.3387 41.704 82.536 41.368C81.752 41.0133 81.08 40.472 80.52 39.744C79.96 39.016 79.68 38.0453 79.68 36.832C79.68 35.712 79.96 34.732 80.52 33.892C81.08 33.052 81.864 32.408 82.872 31.96C83.88 31.512 85.0467 31.288 86.372 31.288C88.2573 31.288 89.7973 31.764 90.992 32.716C92.2053 33.6493 92.8773 34.9373 93.008 36.58H89.48C89.424 35.8707 89.088 35.264 88.472 34.76C87.856 34.256 87.044 34.004 86.036 34.004C85.1213 34.004 84.3747 34.2373 83.796 34.704C83.2173 35.1707 82.928 35.8427 82.928 36.72C82.928 37.3173 83.1053 37.812 83.46 38.204C83.8333 38.5773 84.3 38.876 84.86 39.1C85.42 39.324 86.1853 39.5667 87.156 39.828C88.444 40.1827 89.4893 40.5373 90.292 40.892C91.1133 41.2467 91.804 41.7973 92.364 42.544C92.9427 43.272 93.232 44.252 93.232 45.484C93.232 46.4733 92.9613 47.4067 92.42 48.284C91.8973 49.1613 91.1227 49.8707 90.096 50.412C89.088 50.9347 87.8933 51.196 86.512 51.196ZM111.138 42.908C111.138 43.4867 111.101 44.0093 111.026 44.476H99.2384C99.3318 45.708 99.7891 46.6973 100.61 47.444C101.432 48.1907 102.44 48.564 103.634 48.564C105.352 48.564 106.565 47.8453 107.274 46.408H110.718C110.252 47.8267 109.402 48.9933 108.17 49.908C106.957 50.804 105.445 51.252 103.634 51.252C102.16 51.252 100.834 50.9253 99.6584 50.272C98.5011 49.6 97.5864 48.6667 96.9144 47.472C96.2611 46.2587 95.9344 44.8587 95.9344 43.272C95.9344 41.6853 96.2518 40.2947 96.8864 39.1C97.5398 37.8867 98.4451 36.9533 99.6024 36.3C100.778 35.6467 102.122 35.32 103.634 35.32C105.09 35.32 106.388 35.6373 107.526 36.272C108.665 36.9067 109.552 37.8027 110.186 38.96C110.821 40.0987 111.138 41.4147 111.138 42.908ZM107.806 41.9C107.788 40.724 107.368 39.7813 106.546 39.072C105.725 38.3627 104.708 38.008 103.494 38.008C102.393 38.008 101.45 38.3627 100.666 39.072C99.8824 39.7627 99.4158 40.7053 99.2664 41.9H107.806ZM113.216 43.216C113.216 41.6667 113.533 40.2947 114.168 39.1C114.821 37.9053 115.698 36.9813 116.8 36.328C117.92 35.656 119.152 35.32 120.496 35.32C121.709 35.32 122.764 35.5627 123.66 36.048C124.574 36.5147 125.302 37.1027 125.844 37.812V35.572H129.064V51H125.844V48.704C125.302 49.432 124.565 50.0387 123.632 50.524C122.698 51.0093 121.634 51.252 120.44 51.252C119.114 51.252 117.901 50.916 116.8 50.244C115.698 49.5533 114.821 48.6013 114.168 47.388C113.533 46.156 113.216 44.7653 113.216 43.216ZM125.844 43.272C125.844 42.208 125.62 41.284 125.172 40.5C124.742 39.716 124.173 39.1187 123.464 38.708C122.754 38.2973 121.989 38.092 121.168 38.092C120.346 38.092 119.581 38.2973 118.872 38.708C118.162 39.1 117.584 39.688 117.136 40.472C116.706 41.2373 116.492 42.152 116.492 43.216C116.492 44.28 116.706 45.2133 117.136 46.016C117.584 46.8187 118.162 47.4347 118.872 47.864C119.6 48.2747 120.365 48.48 121.168 48.48C121.989 48.48 122.754 48.2747 123.464 47.864C124.173 47.4533 124.742 46.856 125.172 46.072C125.62 45.2693 125.844 44.336 125.844 43.272ZM136.448 37.812C136.915 37.028 137.531 36.4213 138.296 35.992C139.08 35.544 140.004 35.32 141.068 35.32V38.624H140.256C139.006 38.624 138.054 38.9413 137.4 39.576C136.766 40.2107 136.448 41.312 136.448 42.88V51H133.256V35.572H136.448V37.812ZM142.938 43.272C142.938 41.6853 143.256 40.2947 143.89 39.1C144.544 37.8867 145.44 36.9533 146.578 36.3C147.717 35.6467 149.024 35.32 150.498 35.32C152.365 35.32 153.905 35.768 155.118 36.664C156.35 37.5413 157.181 38.8013 157.61 40.444H154.166C153.886 39.6787 153.438 39.0813 152.822 38.652C152.206 38.2227 151.432 38.008 150.498 38.008C149.192 38.008 148.146 38.4747 147.362 39.408C146.597 40.3227 146.214 41.6107 146.214 43.272C146.214 44.9333 146.597 46.2307 147.362 47.164C148.146 48.0973 149.192 48.564 150.498 48.564C152.346 48.564 153.569 47.752 154.166 46.128H157.61C157.162 47.696 156.322 48.9467 155.09 49.88C153.858 50.7947 152.328 51.252 150.498 51.252C149.024 51.252 147.717 50.9253 146.578 50.272C145.44 49.6 144.544 48.6667 143.89 47.472C143.256 46.2587 142.938 44.8587 142.938 43.272ZM168.771 35.32C169.947 35.32 170.993 35.572 171.907 36.076C172.841 36.58 173.569 37.3267 174.091 38.316C174.633 39.3053 174.903 40.5 174.903 41.9V51H171.739V42.376C171.739 40.9947 171.394 39.94 170.703 39.212C170.013 38.4653 169.07 38.092 167.875 38.092C166.681 38.092 165.729 38.4653 165.019 39.212C164.329 39.94 163.983 40.9947 163.983 42.376V51H160.791V30.28H163.983V37.364C164.525 36.7107 165.206 36.2067 166.027 35.852C166.867 35.4973 167.782 35.32 168.771 35.32ZM189.44 37.84C189.982 37.1307 190.719 36.5333 191.652 36.048C192.586 35.5627 193.64 35.32 194.816 35.32C196.16 35.32 197.383 35.656 198.484 36.328C199.604 36.9813 200.482 37.9053 201.116 39.1C201.751 40.2947 202.068 41.6667 202.068 43.216C202.068 44.7653 201.751 46.156 201.116 47.388C200.482 48.6013 199.604 49.5533 198.484 50.244C197.383 50.916 196.16 51.252 194.816 51.252C193.64 51.252 192.595 51.0187 191.68 50.552C190.766 50.0667 190.019 49.4693 189.44 48.76V58.336H186.248V35.572H189.44V37.84ZM198.82 43.216C198.82 42.152 198.596 41.2373 198.148 40.472C197.719 39.688 197.14 39.1 196.412 38.708C195.703 38.2973 194.938 38.092 194.116 38.092C193.314 38.092 192.548 38.2973 191.82 38.708C191.111 39.1187 190.532 39.716 190.084 40.5C189.655 41.284 189.44 42.208 189.44 43.272C189.44 44.336 189.655 45.2693 190.084 46.072C190.532 46.856 191.111 47.4533 191.82 47.864C192.548 48.2747 193.314 48.48 194.116 48.48C194.938 48.48 195.703 48.2747 196.412 47.864C197.14 47.4347 197.719 46.8187 198.148 46.016C198.596 45.2133 198.82 44.28 198.82 43.216ZM208.417 37.812C208.884 37.028 209.5 36.4213 210.265 35.992C211.049 35.544 211.973 35.32 213.037 35.32V38.624H212.225C210.974 38.624 210.022 38.9413 209.369 39.576C208.734 40.2107 208.417 41.312 208.417 42.88V51H205.225V35.572H208.417V37.812ZM222.663 51.252C221.207 51.252 219.891 50.9253 218.715 50.272C217.539 49.6 216.615 48.6667 215.943 47.472C215.271 46.2587 214.935 44.8587 214.935 43.272C214.935 41.704 215.28 40.3133 215.971 39.1C216.662 37.8867 217.604 36.9533 218.799 36.3C219.994 35.6467 221.328 35.32 222.803 35.32C224.278 35.32 225.612 35.6467 226.807 36.3C228.002 36.9533 228.944 37.8867 229.635 39.1C230.326 40.3133 230.671 41.704 230.671 43.272C230.671 44.84 230.316 46.2307 229.607 47.444C228.898 48.6573 227.927 49.6 226.695 50.272C225.482 50.9253 224.138 51.252 222.663 51.252ZM222.663 48.48C223.484 48.48 224.25 48.284 224.959 47.892C225.687 47.5 226.275 46.912 226.723 46.128C227.171 45.344 227.395 44.392 227.395 43.272C227.395 42.152 227.18 41.2093 226.751 40.444C226.322 39.66 225.752 39.072 225.043 38.68C224.334 38.288 223.568 38.092 222.747 38.092C221.926 38.092 221.16 38.288 220.451 38.68C219.76 39.072 219.21 39.66 218.799 40.444C218.388 41.2093 218.183 42.152 218.183 43.272C218.183 44.9333 218.603 46.2213 219.443 47.136C220.302 48.032 221.375 48.48 222.663 48.48ZM232.763 43.216C232.763 41.6667 233.08 40.2947 233.715 39.1C234.368 37.9053 235.245 36.9813 236.347 36.328C237.467 35.656 238.708 35.32 240.071 35.32C241.079 35.32 242.068 35.544 243.039 35.992C244.028 36.4213 244.812 37 245.391 37.728V30.28H248.611V51H245.391V48.676C244.868 49.4227 244.14 50.0387 243.207 50.524C242.292 51.0093 241.237 51.252 240.043 51.252C238.699 51.252 237.467 50.916 236.347 50.244C235.245 49.5533 234.368 48.6013 233.715 47.388C233.08 46.156 232.763 44.7653 232.763 43.216ZM245.391 43.272C245.391 42.208 245.167 41.284 244.719 40.5C244.289 39.716 243.72 39.1187 243.011 38.708C242.301 38.2973 241.536 38.092 240.715 38.092C239.893 38.092 239.128 38.2973 238.419 38.708C237.709 39.1 237.131 39.688 236.683 40.472C236.253 41.2373 236.039 42.152 236.039 43.216C236.039 44.28 236.253 45.2133 236.683 46.016C237.131 46.8187 237.709 47.4347 238.419 47.864C239.147 48.2747 239.912 48.48 240.715 48.48C241.536 48.48 242.301 48.2747 243.011 47.864C243.72 47.4533 244.289 46.856 244.719 46.072C245.167 45.2693 245.391 44.336 245.391 43.272ZM266.775 35.572V51H263.583V49.18C263.079 49.8147 262.416 50.3187 261.595 50.692C260.792 51.0467 259.934 51.224 259.019 51.224C257.806 51.224 256.714 50.972 255.743 50.468C254.791 49.964 254.035 49.2173 253.475 48.228C252.934 47.2387 252.663 46.044 252.663 44.644V35.572H255.827V44.168C255.827 45.5493 256.172 46.6133 256.863 47.36C257.554 48.088 258.496 48.452 259.691 48.452C260.886 48.452 261.828 48.088 262.519 47.36C263.228 46.6133 263.583 45.5493 263.583 44.168V35.572H266.775ZM269.923 43.272C269.923 41.6853 270.24 40.2947 270.875 39.1C271.528 37.8867 272.424 36.9533 273.563 36.3C274.701 35.6467 276.008 35.32 277.483 35.32C279.349 35.32 280.889 35.768 282.103 36.664C283.335 37.5413 284.165 38.8013 284.595 40.444H281.151C280.871 39.6787 280.423 39.0813 279.807 38.652C279.191 38.2227 278.416 38.008 277.483 38.008C276.176 38.008 275.131 38.4747 274.347 39.408C273.581 40.3227 273.199 41.6107 273.199 43.272C273.199 44.9333 273.581 46.2307 274.347 47.164C275.131 48.0973 276.176 48.564 277.483 48.564C279.331 48.564 280.553 47.752 281.151 46.128H284.595C284.147 47.696 283.307 48.9467 282.075 49.88C280.843 50.7947 279.312 51.252 277.483 51.252C276.008 51.252 274.701 50.9253 273.563 50.272C272.424 49.6 271.528 48.6667 270.875 47.472C270.24 46.2587 269.923 44.8587 269.923 43.272ZM291.5 38.176V46.716C291.5 47.2947 291.63 47.7147 291.892 47.976C292.172 48.2187 292.638 48.34 293.292 48.34H295.252V51H292.732C291.294 51 290.193 50.664 289.428 49.992C288.662 49.32 288.28 48.228 288.28 46.716V38.176H286.46V35.572H288.28V31.736H291.5V35.572H295.252V38.176H291.5ZM303.794 51.252C302.58 51.252 301.488 51.0373 300.518 50.608C299.566 50.16 298.81 49.5627 298.25 48.816C297.69 48.0507 297.391 47.2013 297.354 46.268H300.658C300.714 46.9213 301.022 47.472 301.582 47.92C302.16 48.3493 302.879 48.564 303.738 48.564C304.634 48.564 305.324 48.396 305.81 48.06C306.314 47.7053 306.566 47.2573 306.566 46.716C306.566 46.1373 306.286 45.708 305.726 45.428C305.184 45.148 304.316 44.84 303.122 44.504C301.964 44.1867 301.022 43.8787 300.294 43.58C299.566 43.2813 298.931 42.824 298.39 42.208C297.867 41.592 297.606 40.78 297.606 39.772C297.606 38.9507 297.848 38.204 298.334 37.532C298.819 36.8413 299.51 36.3 300.406 35.908C301.32 35.516 302.366 35.32 303.542 35.32C305.296 35.32 306.706 35.768 307.77 36.664C308.852 37.5413 309.431 38.7453 309.506 40.276H306.314C306.258 39.5853 305.978 39.0347 305.474 38.624C304.97 38.2133 304.288 38.008 303.43 38.008C302.59 38.008 301.946 38.1667 301.498 38.484C301.05 38.8013 300.826 39.2213 300.826 39.744C300.826 40.1547 300.975 40.5 301.274 40.78C301.572 41.06 301.936 41.284 302.366 41.452C302.795 41.6013 303.43 41.7973 304.27 42.04C305.39 42.3387 306.304 42.6467 307.014 42.964C307.742 43.2627 308.367 43.7107 308.89 44.308C309.412 44.9053 309.683 45.6987 309.702 46.688C309.702 47.5653 309.459 48.3493 308.974 49.04C308.488 49.7307 307.798 50.272 306.902 50.664C306.024 51.056 304.988 51.252 303.794 51.252Z" fill="black"/>
</svg>
